<svg width="25" height="25" fill="none" xmlns="http://www.w3.org/2000/svg"><path d="M11.842 20.354a8.141 8.141 0 01-6.946-8.057 8.14 8.14 0 016.946-8.057V0C5.586.598.692 5.875.692 12.297c0 6.421 4.894 11.698 11.15 12.296v-4.24zm8.156-16.046l-.109.37v10.769l.11.109 4.998-2.955-4.999-8.293z" fill="#fff"/><path d="M19.998 4.308L15 12.6l4.998 2.955V4.308zm.001 12.874l-.062.075v3.836l.062.18L25 14.228l-5 2.954z" fill="#fff"/><path d="M19.998 21.272v-4.09L15 14.229l4.998 7.043zm0-5.716l4.999-2.955-4.999-2.272v5.227z" fill="#fff"/><path d="M15 12.601l4.998 2.955v-5.227L15 12.601z" fill="#fff"/></svg>