<svg width="40" height="40" fill="none" xmlns="http://www.w3.org/2000/svg"><path d="M20 40c11.046 0 20-8.954 20-20S31.046 0 20 0 0 8.954 0 20s8.954 20 20 20z" fill="#fff" fill-opacity=".1"/><path d="M18.842 28.354a8.141 8.141 0 01-6.946-8.057 8.14 8.14 0 016.946-8.057V8c-6.256.598-11.15 5.875-11.15 12.297 0 6.421 4.893 11.698 11.15 12.296v-4.24zm8.156-16.046l-.109.37v10.769l.11.109 4.998-2.955-4.999-8.293z" fill="#fff"/><path d="M26.998 12.308L22 20.6l4.998 2.955V12.308zm.001 12.874l-.062.075v3.836l.062.18L32 22.228l-5 2.954z" fill="#fff"/><path d="M26.998 29.272v-4.09L22 22.229l4.998 7.043zm0-5.716l4.999-2.955-4.999-2.272v5.227zM22 20.601l4.998 2.955v-5.227L22 20.601z" fill="#fff"/></svg>